<svg width="67" height="28" viewBox="0 0 67 28" fill="none" xmlns="http://www.w3.org/2000/svg">
<rect width="67" height="28" rx="4" fill="white"/>
<path d="M22.875 6.8125H9.125C8.7106 6.8125 8.31317 6.97712 8.02015 7.27015C7.72712 7.56317 7.5625 7.9606 7.5625 8.375V19.625C7.5625 20.0394 7.72712 20.4368 8.02015 20.7299C8.31317 21.0229 8.7106 21.1875 9.125 21.1875H22.875C23.2894 21.1875 23.6868 21.0229 23.9799 20.7299C24.2729 20.4368 24.4375 20.0394 24.4375 19.625V8.375C24.4375 7.9606 24.2729 7.56317 23.9799 7.27015C23.6868 6.97712 23.2894 6.8125 22.875 6.8125ZM22.5625 19.3125H9.4375V8.6875H22.5625V19.3125ZM11.9375 10.875C11.9375 10.6264 12.0363 10.3879 12.2121 10.2121C12.3879 10.0363 12.6264 9.9375 12.875 9.9375C13.1236 9.9375 13.3621 10.0363 13.5379 10.2121C13.7137 10.3879 13.8125 10.6264 13.8125 10.875C13.8125 11.4552 14.043 12.0116 14.4532 12.4218C14.8634 12.832 15.4198 13.0625 16 13.0625C16.5802 13.0625 17.1366 12.832 17.5468 12.4218C17.957 12.0116 18.1875 11.4552 18.1875 10.875C18.1875 10.6264 18.2863 10.3879 18.4621 10.2121C18.6379 10.0363 18.8764 9.9375 19.125 9.9375C19.3736 9.9375 19.6121 10.0363 19.7879 10.2121C19.9637 10.3879 20.0625 10.6264 20.0625 10.875C20.0625 11.9524 19.6345 12.9858 18.8726 13.7476C18.1108 14.5095 17.0774 14.9375 16 14.9375C14.9226 14.9375 13.8892 14.5095 13.1274 13.7476C12.3655 12.9858 11.9375 11.9524 11.9375 10.875Z" fill="#3625FF"/>
<path d="M34.5597 19.1598C33.7429 19.1598 33.0415 18.9805 32.4556 18.6218C31.8732 18.2631 31.424 17.7678 31.108 17.1357C30.7955 16.5 30.6392 15.7685 30.6392 14.9411C30.6392 14.1101 30.799 13.3768 31.1186 12.7411C31.4382 12.1019 31.8892 11.6048 32.4716 11.2496C33.0575 10.891 33.75 10.7116 34.549 10.7116C35.2131 10.7116 35.8008 10.8342 36.3121 11.0792C36.8271 11.3207 37.2372 11.6634 37.5426 12.1072C37.848 12.5476 38.022 13.0625 38.0646 13.652H36.2216C36.147 13.2578 35.9695 12.9293 35.6889 12.6665C35.4119 12.4002 35.0408 12.267 34.5756 12.267C34.1815 12.267 33.8352 12.3736 33.5369 12.5866C33.2386 12.7962 33.006 13.098 32.8391 13.4922C32.6758 13.8864 32.5941 14.3587 32.5941 14.9091C32.5941 15.4666 32.6758 15.946 32.8391 16.3473C33.0025 16.745 33.2315 17.0522 33.5263 17.2688C33.8246 17.4819 34.1744 17.5884 34.5756 17.5884C34.8597 17.5884 35.1136 17.5352 35.3374 17.4286C35.5646 17.3185 35.7546 17.1605 35.9073 16.9545C36.06 16.7486 36.1648 16.4982 36.2216 16.2035H38.0646C38.0185 16.7823 37.848 17.2955 37.5533 17.7429C37.2585 18.1868 36.8572 18.5348 36.3494 18.7869C35.8416 19.0355 35.245 19.1598 34.5597 19.1598ZM41.5524 19.1651C41.0339 19.1651 40.567 19.0728 40.1515 18.8881C39.7395 18.6999 39.4128 18.4229 39.1714 18.0572C38.9334 17.6914 38.8145 17.2404 38.8145 16.7042C38.8145 16.2425 38.8997 15.8608 39.0702 15.5589C39.2406 15.2571 39.4732 15.0156 39.768 14.8345C40.0627 14.6534 40.3947 14.5167 40.764 14.4244C41.1369 14.3285 41.5222 14.2592 41.9199 14.2166C42.3993 14.1669 42.7882 14.1225 43.0865 14.0835C43.3848 14.0408 43.6014 13.9769 43.7363 13.8917C43.8748 13.8029 43.9441 13.6662 43.9441 13.4815V13.4496C43.9441 13.0483 43.8251 12.7376 43.5872 12.5174C43.3493 12.2972 43.0066 12.1871 42.5591 12.1871C42.0868 12.1871 41.7122 12.2901 41.4352 12.4961C41.1618 12.7021 40.9771 12.9453 40.8812 13.2259L39.0808 12.9702C39.2229 12.473 39.4572 12.0575 39.7839 11.7237C40.1106 11.3864 40.5101 11.1342 40.9824 10.9673C41.4547 10.7969 41.9768 10.7116 42.5485 10.7116C42.9427 10.7116 43.3351 10.7578 43.7257 10.8501C44.1163 10.9425 44.4732 11.0952 44.7964 11.3082C45.1195 11.5178 45.3787 11.8036 45.5741 12.1658C45.7729 12.5281 45.8724 12.9808 45.8724 13.5241V19H44.0187V17.8761H43.9547C43.8376 18.1033 43.6724 18.3164 43.4594 18.5153C43.2498 18.7106 42.9853 18.8686 42.6657 18.9893C42.3496 19.1065 41.9785 19.1651 41.5524 19.1651ZM42.0531 17.7482C42.4402 17.7482 42.7758 17.6719 43.0599 17.5192C43.3439 17.3629 43.5623 17.157 43.715 16.9013C43.8713 16.6456 43.9494 16.3668 43.9494 16.065V15.1009C43.889 15.1506 43.7861 15.1967 43.6405 15.2393C43.4984 15.282 43.3386 15.3192 43.1611 15.3512C42.9835 15.3832 42.8077 15.4116 42.6337 15.4364C42.4597 15.4613 42.3088 15.4826 42.1809 15.5004C41.8933 15.5394 41.6358 15.6033 41.4086 15.6921C41.1813 15.7809 41.002 15.9052 40.8706 16.065C40.7392 16.2212 40.6735 16.4237 40.6735 16.6722C40.6735 17.0273 40.8031 17.2955 41.0623 17.4766C41.3216 17.6577 41.6518 17.7482 42.0531 17.7482ZM47.3613 19V10.8182H49.2309V12.1818H49.3162C49.4653 11.7095 49.721 11.3455 50.0832 11.0898C50.449 10.8306 50.8662 10.701 51.335 10.701C51.4415 10.701 51.5605 10.7063 51.6919 10.717C51.8268 10.7241 51.9387 10.7365 52.0275 10.7543V12.5281C51.9458 12.4996 51.8162 12.4748 51.6386 12.4535C51.4646 12.4286 51.2959 12.4162 51.1326 12.4162C50.781 12.4162 50.465 12.4925 50.1844 12.6452C49.9074 12.7944 49.689 13.0021 49.5292 13.2685C49.3694 13.5348 49.2895 13.842 49.2895 14.19V19H47.3613ZM57.3836 10.8182V12.3097H52.6801V10.8182H57.3836ZM53.8413 8.85795H55.7696V16.5391C55.7696 16.7983 55.8086 16.9972 55.8868 17.1357C55.9684 17.2706 56.075 17.3629 56.2064 17.4126C56.3378 17.4624 56.4834 17.4872 56.6432 17.4872C56.7639 17.4872 56.874 17.4783 56.9734 17.4606C57.0764 17.4428 57.1545 17.4268 57.2078 17.4126L57.5327 18.9201C57.4297 18.9556 57.2824 18.9947 57.0906 19.0373C56.9024 19.0799 56.6716 19.1048 56.3981 19.1119C55.9152 19.1261 55.4802 19.0533 55.0931 18.8935C54.706 18.7301 54.3988 18.478 54.1716 18.1371C53.9479 17.7962 53.8378 17.37 53.8413 16.8587V8.85795Z" fill="#3625FF"/>
</svg>
